<?xml version="1.0" encoding="utf-8"?>
<!-- Generator: Adobe Illustrator 28.3.0, SVG Export Plug-In . SVG Version: 6.00 Build 0)  -->
<svg version="1.1" id="レイヤー_1" xmlns="http://www.w3.org/2000/svg" xmlns:xlink="http://www.w3.org/1999/xlink" x="0px"
	 y="0px" viewBox="0 0 151.96 148.34" style="enable-background:new 0 0 151.96 148.34;" xml:space="preserve">
<style type="text/css">
	.st0{fill:none;}
	.st1{fill:#C2AE4C;}
	.st2{fill:#F4B6B1;}
	.st3{opacity:0.5;}
	.st4{fill:url(#SVGID_1_);}
	.st5{fill:none;stroke:#C2AE4C;stroke-width:7;stroke-miterlimit:10;}
	.st6{fill:none;stroke:#F19BAE;stroke-width:6;stroke-linejoin:round;stroke-miterlimit:10;}
	.st7{fill:none;stroke:#F4B6B1;stroke-width:5;stroke-linejoin:round;stroke-miterlimit:10;}
	.st8{fill:#C5B358;stroke:#C5B358;stroke-width:2;stroke-miterlimit:10;}
	.st9{fill:none;stroke:#F4B6B1;stroke-width:8;stroke-miterlimit:10;}
	.st10{fill:#F4B6B1;stroke:#F4B6B1;stroke-width:2;stroke-miterlimit:10;}
	.st11{fill:#EF95B0;}
</style>
<pattern  x="-1914.47" y="-373.79" width="64" height="60" patternUnits="userSpaceOnUse" id="新規パターン_10" viewBox="15.33 -75.33 64 60" style="overflow:visible;">
	<g>
		<rect x="15.33" y="-75.33" class="st0" width="64" height="60"/>
		<g>
			<circle class="st1" cx="63.33" cy="-15.33" r="5.47"/>
			<rect x="48" y="-30.67" class="st0" width="30.67" height="30.67"/>
		</g>
		<g>
			<circle class="st1" cx="31.33" cy="-15.33" r="5.47"/>
			<rect x="16" y="-30.67" class="st0" width="30.67" height="30.67"/>
		</g>
		<g>
			<circle class="st1" cx="79.33" cy="-45.33" r="5.47"/>
			<rect x="64" y="-60.67" class="st0" width="30.67" height="30.67"/>
		</g>
		<g>
			<circle class="st1" cx="47.33" cy="-45.33" r="5.47"/>
			<rect x="32" y="-60.67" class="st0" width="30.67" height="30.67"/>
		</g>
		<g>
			<circle class="st1" cx="15.33" cy="-45.33" r="5.47"/>
			<rect x="0" y="-60.67" class="st0" width="30.67" height="30.67"/>
		</g>
		<g>
			<circle class="st1" cx="63.33" cy="-75.33" r="5.47"/>
			<rect x="48" y="-90.67" class="st0" width="30.67" height="30.67"/>
		</g>
		<g>
			<circle class="st1" cx="31.33" cy="-75.33" r="5.47"/>
			<rect x="16" y="-90.67" class="st0" width="30.67" height="30.67"/>
		</g>
	</g>
</pattern>
<path class="st2" d="M-847.09,61.07c0,0-0.03,4.36-5.81,13.74c-5.01,8.14-15.45,23.4-35,29.34c12.33,16.3,11.8,34.78,11.07,44.31
	c-0.84,10.99-3.39,14.53-3.39,14.53c-5.5,1.37-16.52-1-16.52-1s-1.14,11.21-4.14,16.03c0,0-4.15,1.32-14.87-1.28
	c-9.29-2.25-27.03-7.47-38.72-24.22c-11.69,16.76-29.42,21.98-38.71,24.22c-10.71,2.59-14.87,1.28-14.87,1.28
	c-3.01-4.82-4.15-16.03-4.15-16.03s-11.02,2.37-16.52,1c0,0-2.53-3.54-3.37-14.53c-0.73-9.53-1.27-28.01,11.07-44.3
	c-19.56-5.95-29.99-21.21-35-29.35c-5.78-9.39-5.81-13.74-5.81-13.74c3.65-4.34,13.95-8.9,13.95-8.9s-5.66-9.74-6.05-15.41
	c0,0,2.58-3.51,12.77-7.71c8.85-3.64,26.25-9.85,45.56-3.16c-0.38-20.44,10.9-35.07,17.09-42.35c7.14-8.39,11.27-9.78,11.27-9.78
	c5.26,2.13,12.78,10.52,12.78,10.52s7.52-8.39,12.78-10.52c0,0,4.13,1.38,11.27,9.78c6.2,7.28,17.48,21.91,17.09,42.35
	c19.32-6.69,36.72-0.47,45.56,3.16c10.19,4.2,12.78,7.71,12.78,7.71c-0.4,5.66-6.06,15.41-6.06,15.41S-850.74,56.72-847.09,61.07z"
	/>
<g>
	<g class="st3">
		
			<pattern  id="SVGID_1_" xlink:href="#譁ｰ隕上ヱ繧ｿ繝ｼ繝ｳ_10" patternTransform="matrix(0.5177 0 0 0.5177 -2465.6436 -3575.282)"  class="st3">
		</pattern>
		<path class="st4" d="M-420.76,66.36c0,0-0.03,4.28-5.7,13.49c-4.92,7.99-15.17,22.98-34.37,28.8
			c12.1,16.01,11.59,34.15,10.87,43.51c-0.83,10.79-3.32,14.27-3.32,14.27c-5.4,1.35-16.22-0.98-16.22-0.98s-1.12,11.01-4.07,15.74
			c0,0-4.08,1.29-14.6-1.25c-9.12-2.21-26.54-7.33-38.02-23.78c-11.48,16.45-28.89,21.58-38.01,23.78
			c-10.52,2.55-14.6,1.25-14.6,1.25c-2.95-4.73-4.08-15.74-4.08-15.74s-10.82,2.33-16.22,0.98c0,0-2.48-3.48-3.31-14.27
			c-0.71-9.36-1.24-27.5,10.87-43.5c-19.21-5.84-29.45-20.82-34.36-28.82c-5.67-9.22-5.71-13.49-5.71-13.49
			c3.58-4.27,13.7-8.74,13.7-8.74s-5.56-9.57-5.94-15.13c0,0,2.54-3.45,12.54-7.57c8.69-3.57,25.77-9.67,44.73-3.11
			c-0.37-20.07,10.71-34.44,16.78-41.58c7.01-8.24,11.07-9.6,11.07-9.6c5.17,2.09,12.55,10.33,12.55,10.33s7.38-8.24,12.55-10.33
			c0,0,4.06,1.36,11.07,9.6c6.09,7.14,17.17,21.52,16.78,41.58c18.97-6.56,36.05-0.47,44.73,3.11c10,4.12,12.55,7.57,12.55,7.57
			c-0.39,5.56-5.95,15.13-5.95,15.13S-424.34,62.09-420.76,66.36z"/>
		<path class="st5" d="M-420.76,66.36c0,0-0.03,4.28-5.7,13.49c-4.92,7.99-15.17,22.98-34.37,28.8
			c12.1,16.01,11.59,34.15,10.87,43.51c-0.83,10.79-3.32,14.27-3.32,14.27c-5.4,1.35-16.22-0.98-16.22-0.98s-1.12,11.01-4.07,15.74
			c0,0-4.08,1.29-14.6-1.25c-9.12-2.21-26.54-7.33-38.02-23.78c-11.48,16.45-28.89,21.58-38.01,23.78
			c-10.52,2.55-14.6,1.25-14.6,1.25c-2.95-4.73-4.08-15.74-4.08-15.74s-10.82,2.33-16.22,0.98c0,0-2.48-3.48-3.31-14.27
			c-0.71-9.36-1.24-27.5,10.87-43.5c-19.21-5.84-29.45-20.82-34.36-28.82c-5.67-9.22-5.71-13.49-5.71-13.49
			c3.58-4.27,13.7-8.74,13.7-8.74s-5.56-9.57-5.94-15.13c0,0,2.54-3.45,12.54-7.57c8.69-3.57,25.77-9.67,44.73-3.11
			c-0.37-20.07,10.71-34.44,16.78-41.58c7.01-8.24,11.07-9.6,11.07-9.6c5.17,2.09,12.55,10.33,12.55,10.33s7.38-8.24,12.55-10.33
			c0,0,4.06,1.36,11.07,9.6c6.09,7.14,17.17,21.52,16.78,41.58c18.97-6.56,36.05-0.47,44.73,3.11c10,4.12,12.55,7.57,12.55,7.57
			c-0.39,5.56-5.95,15.13-5.95,15.13S-424.34,62.09-420.76,66.36z"/>
	</g>
	<path class="st6" d="M-431.99,55.82c0,0-0.03,4.28-5.71,13.49c-4.92,7.99-15.17,22.98-34.36,28.8
		c12.1,16.01,11.59,34.15,10.87,43.51c-0.83,10.79-3.32,14.27-3.32,14.27c-5.4,1.35-16.22-0.98-16.22-0.98s-1.12,11.01-4.07,15.74
		c0,0-4.08,1.29-14.6-1.25c-9.12-2.21-26.54-7.33-38.02-23.78c-11.48,16.45-28.89,21.58-38.01,23.78
		c-10.52,2.55-14.6,1.25-14.6,1.25c-2.95-4.73-4.08-15.74-4.08-15.74s-10.82,2.33-16.22,0.98c0,0-2.48-3.48-3.31-14.27
		c-0.71-9.36-1.24-27.5,10.87-43.5c-19.21-5.84-29.45-20.82-34.36-28.82c-5.67-9.21-5.71-13.49-5.71-13.49
		c3.58-4.27,13.7-8.74,13.7-8.74s-5.56-9.57-5.94-15.13c0,0,2.54-3.45,12.54-7.57c8.69-3.57,25.77-9.67,44.73-3.11
		c-0.37-20.07,10.71-34.44,16.78-41.58c7.01-8.24,11.07-9.6,11.07-9.6c5.17,2.09,12.55,10.33,12.55,10.33s7.38-8.24,12.55-10.33
		c0,0,4.06,1.36,11.07,9.6c6.09,7.14,17.17,21.52,16.78,41.58c18.97-6.56,36.05-0.47,44.73,3.11c10,4.12,12.55,7.57,12.55,7.57
		c-0.39,5.56-5.95,15.13-5.95,15.13S-435.57,51.55-431.99,55.82z"/>
	<path class="st7" d="M-658.79,9.6c0.73-1.28-2.43-10.35-0.02-10.95c2.41-0.6,16.41-2.39,29.51,5.4c13.09,7.8,15.23,26.01,22.62,38
		c-14.02-1.34-31.31,4.77-44.08-3.54c-12.77-8.31-17.34-21.67-17.86-24.1C-669.14,11.98-659.62,10.82-658.79,9.6z"/>
	<path class="st2" d="M-710.13,99.13c-0.69-1.31-10.05-3.46-9.27-5.82c0.78-2.36,6.73-15.16,20.31-22.08
		c13.58-6.92,30.12,0.99,44.21,1.14c-8.62,11.14-12.66,29.03-26.51,35.39s-27.58,3.1-29.91,2.25
		C-713.64,109.16-709.53,100.48-710.13,99.13z"/>
</g>
<g>
	<path class="st8" d="M-528.06-106.17h-5.17v-38.27c-5.26,5.17-8.8,7.62-11.7,9.52l-1.9-4.99c3.99-2.72,18.23-12.33,25.12-29.3
		h-24.49v-4.63h13.15v-15.42h4.99v15.42h11.61v4.63c-1.09,2.99-3.08,8.16-8.89,15.96c4.72,5.99,8.34,9.34,13.15,12.88l-3.36,4.08
		c-2.81-2.36-7.62-6.44-12.52-13.6V-106.17z M-465.75-185.44v35.83h-14.6v35.01c0,2.09,0.09,2.81,2.72,2.81h5.17
		c1.91,0,3.17,0,3.72-2.09c0.27-1.27,1.18-5.26,1.27-14.42l4.99,1.09c-0.54,17.14-1.63,20.14-8.71,20.14h-7.71
		c-5.17,0-6.44-2-6.44-6.53v-36.01h-10.25c0.09,27.12-9.71,36.73-20.86,43.17l-3.99-3.72c13.24-6.98,19.86-15.78,19.77-39.45h-10.16
		v-35.83H-465.75z M-470.73-181h-35.19v26.94h35.19V-181z"/>
</g>
<path class="st9" d="M-139.15,61.25c0,0-0.03,4.34-5.79,13.69c-4.99,8.11-15.4,23.32-34.88,29.24
	c12.28,16.25,11.76,34.66,11.03,44.16c-0.84,10.95-3.37,14.48-3.37,14.48c-5.49,1.37-16.47-1-16.47-1s-1.13,11.17-4.13,15.97
	c0,0-4.14,1.31-14.82-1.27c-9.26-2.24-26.93-7.44-38.59-24.14c-11.65,16.7-29.32,21.9-38.58,24.14
	c-10.68,2.59-14.82,1.27-14.82,1.27c-2.99-4.8-4.14-15.97-4.14-15.97s-10.98,2.36-16.47,1c0,0-2.52-3.53-3.36-14.48
	c-0.73-9.5-1.26-27.91,11.03-44.15c-19.49-5.93-29.89-21.13-34.88-29.25c-5.76-9.35-5.79-13.69-5.79-13.69
	c3.64-4.33,13.9-8.87,13.9-8.87s-5.64-9.71-6.03-15.35c0,0,2.57-3.5,12.73-7.68c8.82-3.63,26.16-9.82,45.4-3.15
	c-0.38-20.37,10.87-34.95,17.03-42.2c7.11-8.36,11.23-9.74,11.23-9.74c5.24,2.12,12.74,10.49,12.74,10.49s7.49-8.36,12.74-10.49
	c0,0,4.12,1.38,11.23,9.74c6.18,7.25,17.42,21.84,17.03,42.2c19.25-6.66,36.59-0.47,45.4,3.15c10.15,4.18,12.74,7.68,12.74,7.68
	c-0.4,5.64-6.04,15.35-6.04,15.35S-142.79,56.92-139.15,61.25z"/>
<g>
	<path class="st10" d="M243.85-222.02c-0.56-0.47-1.87-1.57-3.44-3.67v9.18h-1.6v-8.83c-0.86,1.16-3.05,3.73-6.22,6.01l-0.77-1.42
		c3.82-2.67,5.95-5.3,6.96-7.11h-6.19v-1.48h6.22v-3.55h-6.72v-1.45h3.97c-0.09-1.12-0.47-3.82-0.83-5.04h-2.64v-1.45h6.22v-2.84
		h1.6v2.84h5.45v1.45h-1.92c-0.27,1.66-0.56,3.82-0.86,5.04h3.14v1.45h-5.8v3.55h5.45v1.48h-5.36c0.62,0.95,2.04,2.72,4.38,4.53
		L243.85-222.02z M241.57-234.34c0.44-1.92,0.59-2.93,0.86-5.04h-5.69c0.33,1.39,0.62,3.47,0.77,5.04H241.57z M249.12-234.34h10.07
		v1.51h-3.61v16.32h-1.66v-16.32h-4.8v2.16c0,7.2-2.16,11.7-4.27,14.1l-1.36-1.1c2.43-2.72,4-7.2,4-13.09v-10.96
		c1.24,0,5.33,0,10.31-1.63l0.74,1.63c-4.29,1.16-8.35,1.45-9.42,1.51V-234.34z"/>
	<path class="st10" d="M274.42-237.36v-6.28h1.66v6.28h11.67v1.51h-11.67v7.26h10.48v1.57h-10.48v7.97h12.71v1.54h-27.07v-1.54
		h12.71v-7.97h-10.57v-1.57h10.57v-7.26h-7.79c-1.07,2.22-2.34,4.24-3.88,6.01l-1.24-1.18c2.52-2.64,5.09-7.73,6.04-11.79l1.63,0.44
		c-0.27,1.01-0.59,2.34-1.81,5.01H274.42z"/>
	<path class="st10" d="M296.19-231.17c-1.87-1.69-3.29-2.64-4.95-3.52l0.86-1.27c1.87,0.86,3.32,1.78,5.15,3.44L296.19-231.17z
		 M291.36-218.26c2.28-2.55,4.44-6.84,5.95-10.37l1.24,0.86c-1.57,3.88-3.32,7.76-6.07,10.93L291.36-218.26z M297.76-238.78
		c-1.75-1.57-3.32-2.55-5.15-3.5l0.86-1.24c2.01,0.95,3.55,1.87,5.3,3.38L297.76-238.78z M309.55-235.29h8.86v1.45h-8.86v5.54h7.26
		v11.25h-16.05v-11.25h7.2v-5.54h-8.71v-1.45h8.71v-5.48c-3.52,0.36-6.28,0.36-7.67,0.36l-0.27-1.54c8.94,0.06,13.24-0.92,16.2-1.84
		l0.59,1.45c-2.73,0.77-4.09,0.95-7.26,1.42V-235.29z M315.2-226.85h-12.79v8.38h12.79V-226.85z"/>
</g>
<g>
	<path class="st10" d="M251.84-206.65v5.4h20.47v2.53h-37.68v15.65c0,6.95-1.26,15.31-5.35,20.81l-2.24-2.09
		c3.45-4.47,4.86-12.4,4.86-18.67v-18.23h17.16v-5.4H251.84z M235.07-168.3c3.21-4.76,4.38-11.91,4.81-16.72l2.48,0.39
		c-0.34,4.28-1.36,11.67-4.91,17.6L235.07-168.3z M257.43-186.72c-3.74-3.84-7.78-5.98-10.74-7.39l1.36-2.09
		c4.67,2.19,7.97,4.62,11.13,7.63L257.43-186.72z M250.24-187.6v20.32c0,1.26,0.15,1.65,1.56,1.65h6.32c2.04,0,2.53,0,3.06-8.95
		l2.72,0.83c-0.88,10.36-1.7,10.65-5.54,10.65h-7.19c-2.53,0-3.65-0.92-3.65-3.74v-20.76H250.24z M270.12-167.28
		c-1.7-7.58-3.55-13.03-5.79-18.18l2.48-0.92c3.65,8.12,5.15,14.59,5.98,18.33L270.12-167.28z"/>
	<path class="st10" d="M290.64-182.74c-3.01,1.31-4.52,1.94-5.4,2.29v14.83c0,2.77-0.58,3.55-4.04,3.55h-4.04l-0.49-2.67l4.52,0.05
		c0.88,0,1.41,0,1.41-1.26v-13.51c-3.06,1.12-4.76,1.65-6.17,2.04l-0.34-2.67c2.28-0.58,4.47-1.21,6.51-1.99v-12.64h-6.42v-2.33
		h6.42v-9.58h2.63v9.58h5.1v2.33h-5.1v11.72c2.77-1.07,3.89-1.56,5.1-2.09L290.64-182.74z M286.94-163.82
		c3.5-2.82,9.77-8.51,12.15-19.06h-7.54v-2.24h7.92c0.34-2.38,0.39-3.65,0.39-4.86H292v-2.19h20.08c2.63-3.74,4.13-6.66,5.44-9.82
		l2.38,0.88c-0.97,2.67-2.38,5.3-4.86,8.94h4.72v2.19H302.5c-0.05,1.46-0.1,2.82-0.39,4.86h18.72v2.24h-19.11
		c-0.44,2.24-0.88,3.5-1.22,4.42h17.84v2.28c-1.7,3.65-5.06,6.42-7.1,7.88c4.47,2.77,8.41,3.4,10.26,3.69l-1.6,2.58
		c-3.31-0.88-6.9-2.14-10.89-4.86c-5.44,3.16-10.21,4.18-12.74,4.67l-1.22-2.43c5.88-0.83,9.53-2.53,11.86-3.79
		c-3.16-2.48-4.62-4.67-5.59-6.13l2.24-1.12c1.17,1.75,2.72,3.74,5.54,5.93c4.08-2.92,5.69-5.54,6.32-6.51h-15.8
		c-1.94,4.47-4.81,9.38-10.79,14.49L286.94-163.82z M290.35-203.69c8.9,0,17.79-0.49,27.32-2.58l1.51,2.24
		c-10.26,1.94-20.47,2.53-28.25,2.77L290.35-203.69z M295.35-192.9c-0.83-2.29-1.7-4.28-2.72-6.17l2.48-0.78
		c1.36,2.62,1.9,4.04,2.67,6.17L295.35-192.9z M305.32-193.43c-0.24-0.73-1.12-3.21-3.01-6.76l2.58-0.78
		c1.56,2.97,2.28,5.06,2.87,6.76L305.32-193.43z"/>
</g>
<text transform="matrix(1 0 0 1 -304.8447 106.6745)" class="st2" style="font-family:'UDShinMGoPro-DeBold-90ms-RKSJ-H'; font-size:59.1236px;">合格</text>
<path class="st11" d="M131.97,97.26c7.6,15.17,3.34,34.03-10.83,44.33c-14.47,10.52-34.24,8.43-46.26-4.16
	c-12.08,11.91-31.34,13.7-45.51,3.4c-14.47-10.51-18.6-29.96-10.34-45.28C3.97,87.75-3.68,69.99,1.74,53.32
	C7.26,36.31,24.48,26.38,41.61,29.5C44.38,12.76,58.91,0,76.43,0c17.89,0,32.66,13.3,34.98,30.55c16.77-2.54,33.4,7.34,38.82,24
	C155.75,71.57,147.66,89.72,131.97,97.26z"/>
</svg>
